<?xml version="1.0" encoding="utf-8"?>
<!-- Generator: Adobe Illustrator 22.0.1, SVG Export Plug-In . SVG Version: 6.00 Build 0)  -->
<svg version="1.1" id="Layer_1" xmlns="http://www.w3.org/2000/svg" xmlns:xlink="http://www.w3.org/1999/xlink" x="0px" y="0px"
	 viewBox="0 0 50 50" style="enable-background:new 0 0 50 50;" xml:space="preserve">
<style type="text/css">
	.st0{fill:#FFCC33;}
	.st1{fill:#FFFFFF;stroke:#000000;stroke-width:0.1582;stroke-miterlimit:10;}
</style>
<path class="st0" d="M72.6,113.1H28c0,0-29.8-0.5-29.5,31.7s30.8,31.8,30.8,31.8l22.7,0L80,147.7v-8.6L35.4,139v15.3l25.5,0.1v6.1
	l-29.7-0.1c0,0-13.6-0.5-13.6-15.7s13.9-15.1,13.9-15.1l25-0.2c0,0,0,0,0,0L72.6,113.1z"/>
<path class="st0" d="M24.2,24.6c0.6-0.6,0.2-1.6-0.7-1.6H10.4c0,0-10.2-0.2-10.2,10.9s10.6,10.9,10.6,10.9l7.4,0
	c0.3,0,0.5-0.1,0.7-0.3l9.1-9.4c0.2-0.2,0.3-0.4,0.3-0.7v-1.6c0-0.5-0.4-0.9-0.9-0.9l-13.5,0c-0.5,0-0.9,0.4-0.9,0.9v3.4
	c0,0.5,0.4,0.9,0.9,0.9l7.8,0v2.1l-10.2,0c0,0-4.7-0.2-4.7-5.4s4.8-5.2,4.8-5.2l8.2-0.1c0.2-0.1,0.4-0.2,0.7-0.3L24.2,24.6z"/>
<path class="st1" d="M23,27.4l3.7-3.8c0.2-0.2,0.4-0.3,0.7-0.3h11.9c0,0,0,0,0,0c0.4,0,10.2,0.7,10.3,11c0.2,10.3-10.1,10.9-10.5,11
	c0,0,0,0,0,0H22c-0.8,0-1.3-1-0.7-1.6l6.4-6.6v2.6l10.8,0c0,0,4.7-0.3,4.7-5.4s-5-5.3-5-5.3H23.7C22.9,29,22.5,28,23,27.4z"/>
</svg>
